<?xml version="1.0" standalone="no"?>
<!DOCTYPE svg PUBLIC "-//W3C//DTD SVG 20010904//EN"
 "http://www.w3.org/TR/2001/REC-SVG-20010904/DTD/svg10.dtd">
<svg version="1.0" xmlns="http://www.w3.org/2000/svg"
 width="167.000000pt" height="311.000000pt" viewBox="0 0 167.000000 311.000000"
 preserveAspectRatio="xMidYMid meet">

<g transform="translate(0.000000,311.000000) scale(0.100000,-0.100000)"
fill="currentColor" stroke="none">
<path d="M445 2030 c-110 -4 -231 -13 -270 -20 -99 -16 -132 -52 -80 -86 88
-58 913 -82 1332 -38 182 18 212 29 213 77 0 48 -149 65 -635 71 -198 2 -450
1 -560 -4z"/>
<path d="M1500 1799 c-215 -31 -886 -36 -1203 -9 -76 7 -140 10 -143 8 -2 -3
22 -223 55 -489 33 -266 76 -623 96 -794 20 -171 40 -326 45 -345 13 -50 35
-77 83 -103 41 -21 51 -22 406 -25 317 -3 370 -1 415 13 59 19 101 55 116 99
9 28 52 366 165 1301 20 160 38 305 41 323 7 36 11 34 -76 21z"/>
</g>
</svg>
