<?xml version="1.0" standalone="no"?>
<!DOCTYPE svg PUBLIC "-//W3C//DTD SVG 20010904//EN"
 "http://www.w3.org/TR/2001/REC-SVG-20010904/DTD/svg10.dtd">
<svg version="1.0" xmlns="http://www.w3.org/2000/svg"
 width="171.000000pt" height="285.000000pt" viewBox="0 0 171.000000 285.000000"
 preserveAspectRatio="xMidYMid meet">

<g transform="translate(0.000000,285.000000) scale(0.100000,-0.100000)"
fill="currentColor" stroke="none">
<path d="M566 2818 c-20 -28 -23 -227 -4 -246 9 -9 86 -12 285 -12 259 0 273
1 283 19 5 11 10 65 10 121 0 56 -5 110 -10 121 -10 18 -24 19 -280 19 -267 0
-269 0 -284 -22z"/>
<path d="M620 2444 c-6 -14 -70 -85 -143 -157 -143 -142 -182 -201 -206 -315
-14 -66 -14 -242 -1 -276 l10 -26 572 2 573 3 3 117 c6 246 -56 368 -281 562
-46 39 -70 68 -74 87 l-5 29 -219 0 -219 0 -10 -26z"/>
<path d="M262 1543 c-4 -10 -7 -111 -7 -225 0 -196 1 -208 22 -236 21 -29 21
-29 2 -58 -17 -26 -19 -48 -19 -204 1 -150 3 -180 19 -209 18 -34 18 -35 -1
-68 -18 -29 -19 -48 -16 -181 3 -135 5 -152 29 -197 18 -35 39 -59 74 -80 l48
-30 411 -3 c283 -2 423 0 449 8 49 14 115 74 138 125 25 54 27 306 4 362 -14
32 -14 39 0 59 22 34 22 382 0 424 -14 27 -14 32 2 57 16 24 18 53 18 233 0
161 -3 211 -14 223 -12 15 -65 17 -583 17 -532 0 -569 -1 -576 -17z"/>
</g>
</svg>
