<?xml version="1.0" standalone="no"?>
<!DOCTYPE svg PUBLIC "-//W3C//DTD SVG 20010904//EN"
 "http://www.w3.org/TR/2001/REC-SVG-20010904/DTD/svg10.dtd">
<svg version="1.0" xmlns="http://www.w3.org/2000/svg"
 width="175.000000pt" height="282.000000pt" viewBox="0 0 175.000000 282.000000"
 preserveAspectRatio="xMidYMid meet">

<g transform="translate(0.000000,282.000000) scale(0.100000,-0.100000)"
fill="currentColor" stroke="none">
<path d="M388 2489 c-26 -15 -25 -85 1 -99 13 -6 194 -10 519 -10 471 0 500 1
515 18 21 23 22 66 1 86 -14 14 -74 16 -517 16 -322 0 -508 -4 -519 -11z"/>
<path d="M400 2279 c-35 -14 -88 -67 -113 -114 l-22 -40 0 -845 c0 -776 1
-848 17 -876 25 -45 82 -92 128 -104 27 -7 195 -10 507 -8 457 3 469 4 508 24
22 12 48 31 58 42 46 51 46 50 47 922 0 552 -4 838 -11 863 -13 47 -72 115
-116 134 -26 10 -130 13 -505 12 -288 0 -483 -4 -498 -10z"/>
<path d="M447 183 c-11 -10 -8 -62 3 -84 10 -18 26 -19 449 -19 487 0 465 -3
459 67 l-3 38 -451 3 c-248 1 -454 -1 -457 -5z"/>
</g>
</svg>
