<?xml version="1.0" standalone="no"?>
<!DOCTYPE svg PUBLIC "-//W3C//DTD SVG 20010904//EN"
 "http://www.w3.org/TR/2001/REC-SVG-20010904/DTD/svg10.dtd">
<svg version="1.0" xmlns="http://www.w3.org/2000/svg"
 width="133.000000pt" height="282.000000pt" viewBox="0 0 133.000000 282.000000"
 preserveAspectRatio="xMidYMid meet">

<g transform="translate(0.000000,282.000000) scale(0.100000,-0.100000)"
fill="currentColor" stroke="none">
<path d="M431 2786 c-8 -9 -11 -55 -9 -137 l3 -124 235 -3 c212 -2 236 -1 247
15 9 11 13 53 13 118 0 154 16 145 -254 145 -179 0 -226 -3 -235 -14z"/>
<path d="M480 2394 c-7 -20 -40 -66 -75 -102 -134 -143 -184 -255 -192 -434
l-6 -108 27 -10 c17 -6 188 -10 456 -10 381 0 429 2 434 16 17 44 -4 217 -38
311 -21 60 -72 136 -149 224 -37 42 -74 93 -82 113 l-15 36 -174 0 -174 0 -12
-36z"/>
<path d="M217 1623 c-13 -12 -8 -378 5 -391 9 -9 121 -12 443 -12 408 0 433 1
449 19 14 16 16 41 14 202 l-3 184 -451 3 c-248 1 -454 -1 -457 -5z"/>
<path d="M220 1100 c-8 -16 -7 -48 6 -128 17 -113 16 -158 -12 -377 -18 -137
-15 -388 6 -445 20 -56 60 -101 106 -122 41 -17 66 -19 357 -16 l314 3 40 27
c100 66 120 196 84 543 -25 242 -26 302 -4 415 9 48 13 94 10 103 -6 15 -47
17 -451 17 -438 0 -445 0 -456 -20z"/>
</g>
</svg>
