<?xml version="1.0" standalone="no"?>
<!DOCTYPE svg PUBLIC "-//W3C//DTD SVG 20010904//EN"
 "http://www.w3.org/TR/2001/REC-SVG-20010904/DTD/svg10.dtd">
<svg version="1.0" xmlns="http://www.w3.org/2000/svg"
 width="1024.000000pt" height="1024.000000pt" viewBox="0 0 1024.000000 1024.000000"
 preserveAspectRatio="xMidYMid meet">

<g transform="translate(0.000000,1024.000000) scale(0.100000,-0.100000)"
fill="currentColor" stroke="none">
<path d="M7540 7364 c-716 -69 -1316 -345 -1864 -857 -420 -392 -825 -1003
-1186 -1788 l-67 -147 456 -455 456 -456 250 128 c443 226 743 416 1045 660
161 130 504 437 611 547 182 188 394 498 525 769 183 381 266 721 281 1155 5
156 3 194 -11 242 -22 78 -70 137 -138 172 -52 26 -66 28 -185 31 -70 2 -148
1 -173 -1z m-1011 -1125 c247 -57 406 -329 332 -568 -26 -85 -60 -137 -129
-204 -176 -167 -432 -167 -612 0 -186 172 -193 466 -16 647 53 55 146 109 214
125 51 12 158 13 211 0z"/>
<path d="M4357 6758 c-60 -80 -125 -246 -178 -457 -22 -86 -43 -159 -47 -163
-4 -4 -34 -21 -67 -39 -172 -91 -355 -245 -488 -410 l-37 -46 -80 23 c-95 28
-262 46 -345 39 -169 -16 -185 -25 -185 -101 0 -85 110 -307 236 -478 53 -72
79 -96 151 -143 138 -90 378 -207 517 -252 115 -38 276 -81 301 -81 6 0 28 39
50 88 63 143 276 567 360 717 103 185 263 441 369 593 l87 123 -71 100 c-158
222 -330 417 -429 488 -61 43 -111 43 -144 -1z m31 -974 c29 -20 30 -76 2
-104 -43 -43 -110 -10 -110 54 0 38 28 66 65 66 11 0 31 -7 43 -16z m40 -307
c3 -66 2 -69 -31 -102 -18 -18 -53 -39 -77 -46 -31 -9 -58 -28 -88 -60 -50
-56 -113 -89 -168 -89 -70 0 -114 39 -84 75 9 10 24 13 56 8 37 -5 55 0 111
27 l66 33 -36 19 c-51 25 -60 63 -23 95 42 35 106 25 106 -17 0 -49 95 0 105
54 4 19 4 40 0 46 -9 15 14 31 40 28 17 -3 20 -12 23 -71z m-534 -79 c23 -32
20 -65 -10 -94 -19 -20 -31 -24 -52 -20 -34 8 -62 41 -62 72 0 58 92 89 124
42z"/>
<path d="M6830 4258 c-64 -57 -300 -234 -426 -319 -210 -140 -522 -322 -790
-459 l-151 -78 77 -183 c151 -362 279 -576 356 -595 13 -3 36 -3 52 1 31 7
360 330 718 705 254 265 283 306 306 428 21 114 -20 371 -80 504 l-17 37 -45
-41z"/>
<path d="M4012 4184 c-315 -84 -480 -342 -647 -1013 -51 -203 -131 -608 -122
-617 7 -7 293 47 452 86 353 87 625 184 790 283 248 147 361 314 373 547 5
122 -9 194 -62 305 -86 181 -310 366 -497 410 -80 18 -217 18 -287 -1z"/>
</g>
</svg>